<svg xmlns="http://www.w3.org/2000/svg" width="18" height="17"><path fill-rule="evenodd" fill="#535353" d="M16.751 16.998H2.232c-.695 0-1.258-.537-1.258-1.198V1.475c0-.662.563-1.198 1.258-1.198h14.519c.696 0 1.26.536 1.26 1.198V15.8c0 .661-.564 1.198-1.26 1.198zM3.564 14.274h2.574V6.723H3.564v7.551zm1.304-11.19c-.88 0-1.456.564-1.456 1.304 0 .726.559 1.304 1.422 1.304h.017c.897 0 1.456-.578 1.456-1.304-.017-.74-.559-1.304-1.439-1.304zm10.549 6.861c0-2.319-1.27-3.4-2.962-3.4-1.366 0-1.978.734-2.32 1.248v-1.07H7.562c.033.709 0 7.551 0 7.551h2.573v-4.217c0-.225.017-.451.085-.612.186-.451.609-.917 1.32-.917.931 0 1.303.692 1.303 1.706v4.04h2.574V9.945zm-5.299-2.126l.017-.026v.026h-.017z"/></svg>