<svg xmlns="http://www.w3.org/2000/svg" width="59" height="56"><path fill-rule="evenodd" fill="#4B811B" d="M58.995 21.907a5.1 5.1 0 01-1.567 3.683 5.33 5.33 0 01-1.875 1.178 4.567 4.567 0 01-1.388 3.578 4.829 4.829 0 01-3.334 1.348 5.393 5.393 0 01-.95 1.229 5.675 5.675 0 01-3.965 1.593 5.72 5.72 0 01-2.694-.696c-4.276.194-7.142 6.666-8.518 19.274l-.076.697a2.51 2.51 0 01-2.504 2.214h-5.021c-1.313 0-2.415-1.013-2.506-2.307-.739-10.484-6.359-19.468-10.489-19.582a4.28 4.28 0 01-1.192.188 4.223 4.223 0 01-2.947-1.184 4.032 4.032 0 01-1.212-2.567 5.657 5.657 0 01-3.886-1.595 5.413 5.413 0 01-1.649-3.852 4.721 4.721 0 01-1.82-1.102 4.554 4.554 0 01-1.398-3.286c0-1.242.497-2.409 1.398-3.284a4.755 4.755 0 011.697-1.059 5.135 5.135 0 011.566-3.697c1.422-1.382 3.509-1.849 5.384-1.266 1.496-1.393 3.656-1.788 5.548-1.092a6.76 6.76 0 012.589-2.134v-.039c0-3.665 3.061-6.647 6.823-6.647 1.064 0 2.098.239 3.04.699a6.108 6.108 0 014.716-2.207c1.663 0 3.254.678 4.388 1.845a7.299 7.299 0 012.205-.338c3.976 0 7.211 3.15 7.211 7.023 0 .087-.019.172-.022.26 1.629-.49 3.473-.13 4.761 1.121a4.573 4.573 0 011.095 1.656 5.36 5.36 0 013.8 1.514 5.107 5.107 0 011.317 5.247 5.09 5.09 0 011.475 3.587zM26.599 53.56a.5.5 0 00.502.458h5.021a.51.51 0 00.508-.451l.076-.686c.517-4.743 1.996-18.306 8.6-20.7a5.202 5.202 0 01-.364-.586 3.047 3.047 0 01-.565-.065c-.138-.028-.268-.075-.4-.122-.046-.017-.095-.024-.141-.044-.091-.036-.173-.09-.26-.136-.081-.043-.165-.077-.243-.128l-.014-.011a3.09 3.09 0 01-.431-.345c-.004-.004-.006-.009-.011-.013a2.922 2.922 0 01-.385-.472c-.011-.017-.027-.03-.037-.045-3.175 3.948-5.366 9.788-5.39 9.853-.185.5-.738.768-1.251.602a.991.991 0 01-.658-1.213c1.093-3.845 1.086-7.706.811-10.592-.053.014-.107.02-.159.033a7.172 7.172 0 01-1.591.211c-.055.001-.109.008-.165.008-.097 0-.191-.011-.287-.015-.11-.005-.219-.008-.329-.017a7.833 7.833 0 01-.485-.061c-.071-.011-.144-.015-.216-.027 1.209 6.192.409 14.418.371 14.798a1.006 1.006 0 01-1.973.143c-1.607-6.352-4.95-10.626-6.914-12.701a4.204 4.204 0 01-.66.626c-.022.017-.047.03-.069.047-.112.08-.223.159-.341.227-.048.028-.099.05-.148.077-.096.051-.189.102-.287.146-.061.027-.124.046-.185.07-.091.035-.18.072-.272.101-.066.021-.132.033-.198.051-.093.023-.184.048-.277.066-.068.013-.135.019-.202.028-.095.013-.189.028-.284.035-.068.005-.136.003-.204.005-.096.002-.191.005-.287.001-.07-.003-.14-.012-.21-.019-.078-.007-.155-.009-.232-.021 4.917 2.299 9.566 11.366 10.236 20.884zm7.513-20.415c.917-1.629 2.028-3.31 3.27-4.742a4.13 4.13 0 01-.534-.436c-.039-.039-.067-.074-.096-.11a5.266 5.266 0 01-1.451-.956 7.158 7.158 0 01-1.41 1.125c.167 1.469.282 3.208.221 5.119zm-7.625-4.956a7.24 7.24 0 01-1.693-1.299c-.138.073-.282.132-.425.194-.23.167-.46.33-.689.453a2.914 2.914 0 01-.882 2.016 3.022 3.022 0 01-.875.583 30.027 30.027 0 015.451 8.343c.056-3.168-.086-7.197-.887-10.29zM14.309 14.175c0-.343.031-.68.084-1.012.014-.088.04-.174.058-.261.049-.244.104-.485.181-.719.009-.029.012-.06.022-.089a3.375 3.375 0 00-3.278.812 3.22 3.22 0 00-.267.298 1.015 1.015 0 01-1.218.275c-1.281-.607-2.815-.36-3.818.616a3.15 3.15 0 00-.911 2.846.982.982 0 01-.167.757 1.005 1.005 0 01-.666.407 2.756 2.756 0 00-1.519.746 2.585 2.585 0 00-.002 3.736c.433.421.987.683 1.603.758.273.033.52.175.684.393a.983.983 0 01.184.761 3.421 3.421 0 00.997 3.042c.878.854 2.13 1.204 3.357.938a1.015 1.015 0 01.942.283.99.99 0 01.245.943 2.022 2.022 0 00.555 1.998c.62.601 1.521.759 2.298.48.004-.001.006-.005.01-.006a2.073 2.073 0 001.21-1.091 1.008 1.008 0 011.282-.508 2.221 2.221 0 002.361-.463c.144-.139.265-.297.362-.47.096-.169.167-.35.211-.542a.996.996 0 01.472-.636c.238-.138.524-.173.791-.095.367.107.758.017 1.021-.239a.928.928 0 00.273-.533c-.064-.003-.127-.013-.191-.017-.098-.007-.197-.014-.294-.026a5.806 5.806 0 01-.303-.046 4.53 4.53 0 01-.287-.052c-.098-.022-.194-.048-.292-.073-.092-.025-.185-.05-.275-.079-.095-.03-.189-.066-.282-.1a5.52 5.52 0 01-.263-.103c-.091-.038-.179-.082-.267-.125-.085-.042-.169-.082-.251-.127-.086-.047-.168-.098-.251-.148-.08-.049-.16-.096-.237-.149-.081-.055-.157-.113-.234-.171-.075-.055-.15-.11-.221-.169-.075-.06-.146-.127-.217-.191-.069-.063-.139-.123-.204-.188a5.699 5.699 0 01-.199-.213c-.062-.067-.125-.133-.184-.203-.063-.077-.12-.156-.18-.235-.054-.071-.109-.142-.16-.216-.055-.083-.106-.168-.158-.254-.046-.076-.095-.15-.138-.228-.05-.088-.092-.181-.136-.272-.038-.08-.079-.156-.114-.238-.042-.096-.076-.196-.112-.296-.029-.079-.061-.156-.087-.238-.034-.106-.059-.217-.087-.327-.019-.077-.043-.152-.059-.23-.026-.123-.042-.249-.059-.375-.01-.068-.024-.135-.031-.203a5.727 5.727 0 01.617-3.246 6.577 6.577 0 01-2.201-4.887zM44.464 12a.97.97 0 01-.295-.245c-.058-.071-.093-.154-.129-.237-.013-.031-.037-.056-.047-.087a.979.979 0 01-.038-.305c0-.021-.008-.04-.007-.061.006-.085.039-.168.067-.251.013-.039.013-.078.031-.116l.002-.005v-.001l.004-.009.076-.181.004-.007c.281-.631.43-1.293.43-1.974 0-2.777-2.335-5.037-5.202-5.037-.73 0-1.441.147-2.113.437a1.01 1.01 0 01-1.209-.321 4.095 4.095 0 00-3.272-1.624c-1.472 0-2.83.778-3.54 2.03a.998.998 0 01-.648.482 1.015 1.015 0 01-.798-.151 4.893 4.893 0 00-2.77-.853c-2.655 0-4.814 2.091-4.814 4.661 0 .193.016.38.039.566a.994.994 0 01-.675 1.064 4.76 4.76 0 00-2.718 2.291c-.018.033-.03.067-.047.1a4.752 4.752 0 00-.216.51c-.02.057-.037.113-.055.17-.05.162-.09.327-.122.494-.01.056-.023.111-.031.168a4.481 4.481 0 00-.054.668c0 1.528.777 2.961 2.08 3.834a.989.989 0 01.243 1.415 3.797 3.797 0 00-.772 2.291c0 2.154 1.811 3.906 4.038 3.906.268 0 .537-.03.805-.087l.027-.007c.266-.059.532-.143.795-.257.007-.003.014-.002.021-.005a4.14 4.14 0 00.832-.474 1.007 1.007 0 011.423.206 5.168 5.168 0 001.977 1.617c.181.087.366.16.553.225l.045.014c.172.058.347.108.524.147.031.007.064.011.095.017.163.033.327.061.49.08.049.004.098.004.146.008.15.012.3.023.45.022.201-.002.4-.014.595-.036.114-.014.225-.039.338-.059.089-.017.179-.029.266-.05.128-.031.254-.071.379-.111.067-.021.135-.04.2-.064.133-.048.263-.105.393-.165a5.15 5.15 0 002.189-1.869 1.012 1.012 0 011.706.03 3.252 3.252 0 001.621 1.346h.001c.175.067.353.115.532.152.037.007.074.016.113.022.182.031.365.051.55.051 1.799 0 3.262-1.414 3.262-3.153 0-.37-.07-.742-.209-1.102a.99.99 0 01.551-1.272c1.207-.497 1.986-1.636 1.986-2.903 0-.59-.174-1.168-.501-1.671a.984.984 0 01.375-1.415c.555-.292.901-.842.901-1.437 0-.591-.326-1.123-.873-1.422zm11.557 7.641a3.711 3.711 0 00-.306-.259.985.985 0 01-.288-1.228 3.137 3.137 0 00-.631-3.666 3.4 3.4 0 00-2.963-.891 1.018 1.018 0 01-.759-.167.987.987 0 01-.41-.654 2.602 2.602 0 00-.763-1.459c-.95-.924-2.436-1.031-3.508-.311.058.062.101.135.154.201.061.076.122.149.176.229.081.119.149.245.215.373.041.08.086.156.122.239.061.146.105.298.147.451.02.073.048.141.063.216.048.23.076.465.076.704 0 .251-.027.497-.079.736a3.604 3.604 0 01-1.076 1.881c.249.604.378 1.25.378 1.907 0 1.773-.926 3.39-2.42 4.325a4.822 4.822 0 01-.008 1.925c-.02.105-.056.201-.083.302a4.882 4.882 0 01-.195.611c-.045.112-.101.217-.154.326a4.877 4.877 0 01-.498.814 5.016 5.016 0 01-.372.439 4.96 4.96 0 01-.26.263 5.432 5.432 0 01-.465.374c-.094.069-.184.141-.283.204-.194.121-.4.225-.61.322-.08.037-.154.084-.237.118a5.42 5.42 0 01-.899.278 1.174 1.174 0 01-.031.127.942.942 0 00.043.654c.01.022.016.046.027.067.045.084.1.162.17.23.038.035.082.06.123.09.215.151.481.213.751.173.042-.007.085-.007.128-.018h.005a.985.985 0 01.263-.035c.021 0 .042.009.063.01.042.003.08.011.12.019a1.027 1.027 0 01.32.115c.07.041.131.09.191.147.023.023.049.042.07.067.075.089.139.187.182.303a3.43 3.43 0 001.444 1.777l.003.002c1.4.878 3.291.722 4.515-.467.357-.345.628-.752.81-1.212.173-.434.63-.692 1.09-.619a2.837 2.837 0 002.385-.745c.7-.68.964-1.677.69-2.601a.98.98 0 01.111-.807c.152-.242.4-.406.682-.454a3.338 3.338 0 001.78-.895 3.147 3.147 0 00.967-2.267c0-.854-.344-1.657-.966-2.264zm-3.751 5.236a4.963 4.963 0 01-1.974.412 4.977 4.977 0 01-1.793-.336 4.868 4.868 0 01-2.717-2.582.99.99 0 01.517-1.308 1.01 1.01 0 011.323.512 2.88 2.88 0 001.609 1.528c.726.28 1.517.264 2.23-.045a2.872 2.872 0 001.544-1.591c.284-.716.268-1.5-.045-2.205a.99.99 0 01.517-1.308 1.01 1.01 0 011.323.509 4.79 4.79 0 01.076 3.726 4.863 4.863 0 01-2.61 2.688zm-13.31-2.669a4.947 4.947 0 01-2.413.628c-1.718 0-3.389-.89-4.293-2.473a.989.989 0 01.379-1.354 1.01 1.01 0 011.368.376 2.895 2.895 0 001.757 1.36 2.928 2.928 0 002.214-.268 2.866 2.866 0 001.374-1.739c.208-.74.112-1.52-.271-2.189a.987.987 0 01.38-1.353 1.01 1.01 0 011.369.377 4.79 4.79 0 01.457 3.699 4.85 4.85 0 01-2.321 2.936zm-2.4-9.997a4.8 4.8 0 01-.479-.023 4.902 4.902 0 01-3.328-1.748.985.985 0 01.136-1.398 1.01 1.01 0 011.413.134 2.904 2.904 0 001.97 1.035 2.888 2.888 0 002.133-.646 2.864 2.864 0 00.393-4.058.986.986 0 01.136-1.398c.43-.35 1.06-.288 1.414.134a4.839 4.839 0 01-.664 6.854 4.92 4.92 0 01-3.124 1.114zm-.908 1.65c.241-.493.84-.701 1.342-.461a.99.99 0 01.467 1.327c-.85 1.735-2.61 2.747-4.439 2.747a4.938 4.938 0 01-2.137-.486c-2.443-1.169-3.468-4.087-2.287-6.503a1.01 1.01 0 011.341-.462.99.99 0 01.467 1.327 2.872 2.872 0 001.354 3.85c1.446.691 3.192.093 3.892-1.339zm-8.59-6.259c-1.497-.579-3.19.155-3.774 1.635-.586 1.481.156 3.156 1.652 3.735a.99.99 0 01.57 1.286 1.008 1.008 0 01-1.302.564c-2.527-.977-3.78-3.806-2.791-6.307.989-2.5 3.845-3.74 6.377-2.763a.99.99 0 01.57 1.286 1.01 1.01 0 01-1.302.564zM22.2 15.717a.989.989 0 01.518 1.308 2.876 2.876 0 001.503 3.796c.715.31 1.507.323 2.231.042a2.88 2.88 0 001.607-1.53c.221-.5.81-.731 1.322-.512.508.22.741.806.518 1.308a4.86 4.86 0 01-2.714 2.584 4.946 4.946 0 01-3.767-.073c-2.485-1.075-3.625-3.952-2.539-6.41.22-.501.808-.732 1.321-.513zm-11.27 8.479a4.94 4.94 0 01-1.845-.357c-2.514-1.009-3.73-3.854-2.71-6.342a1.01 1.01 0 011.309-.548.991.991 0 01.553 1.295c-.604 1.473.116 3.157 1.605 3.755 1.492.598 3.192-.116 3.795-1.588a1.01 1.01 0 011.309-.547.99.99 0 01.553 1.294c-.776 1.891-2.623 3.038-4.569 3.038z"/></svg>