<svg xmlns="http://www.w3.org/2000/svg" width="53" height="57"><path fill-rule="evenodd" fill="#F2374D" d="M52.999 31.867c0 .817-.163 1.634-.476 2.434l.002.002-4.857 11.975c-3.126 5.779-5.812 7.276-11.645 9.541-2.018.785-4.873 1.177-7.73 1.177s-5.717-.392-7.749-1.176c-5.822-2.243-8.511-3.744-11.699-9.636l-.048-.103-3.781-9.362c-1.283-1.525-1.94-3.156-1.94-4.853 0-2.332 1.253-4.569 3.63-6.502a6.405 6.405 0 01-.104-1.134c0-.783.158-1.573.466-2.357a9.298 9.298 0 01-.749-.674c-3.923-3.943-4.334-9.947-.915-13.385l.915-.92A7.7 7.7 0 019.132 5.1a5.548 5.548 0 00-1.247-1.393C6.329 2.486 4.088 2.092 1.227 2.532A1.006 1.006 0 01.923.542c3.445-.533 6.211.007 8.222 1.6a7.681 7.681 0 012.034 2.48c2.883-.306 6.053.778 8.456 3.193.38.382.717.797 1.022 1.229 2.265-.567 4.787-.892 7.37-.918 1.052-.01 1.719-.259 1.982-.739.612-1.112-.499-3.613-1.133-4.65a1.017 1.017 0 01-.044-.976c.154-.31.455-.52.798-.554 3.713-.371 6.792.543 9.161 2.713 4.199 3.847 4.815 10.443 4.903 12.494 3.733 2.093 5.779 4.854 5.779 7.817 0 .376-.035.755-.104 1.134 2.378 1.932 3.63 4.17 3.63 6.502zm-46.18 3.961l.001.003 3.813 9.442c2.88 5.307 5.087 6.532 10.629 8.669 3.557 1.372 10.513 1.371 14.041.001 5.553-2.157 7.76-3.381 10.58-8.575l4.249-10.489a2.36 2.36 0 00-1.008-.301c-.064-.005-.131.001-.197.001-.118-.001-.233-.004-.352.009-.085.009-.171.027-.257.042-.102.017-.203.033-.307.058-.096.023-.191.055-.287.085-.095.029-.19.057-.285.092-.099.038-.2.08-.3.122-.092.039-.183.077-.274.12-.102.048-.203.1-.304.152a9.437 9.437 0 00-.816.471c-.099.063-.195.125-.29.189l-.243.167c-.091.064-.182.128-.27.193-.081.061-.161.12-.24.181a9.3 9.3 0 00-.238.183l-.241.195-.195.16c-.087.073-.167.142-.247.212l-.141.123a20.98 20.98 0 00-.269.242c-.02.018-.043.038-.062.057-.209.192-.374.353-.483.462l-.001.001-.706.701-.705-.704a3.217 3.217 0 00-.514-.414c-2.21-1.457-5.471.44-7.251 2.22l-.706.706-.706-.706a5.498 5.498 0 00-7.766 0l-.703.703-.706-.699c-1.948-1.929-5.651-4-7.867-1.807l-.703.695-.702-.695c-.836-.826-4.885-4.622-7.357-3.22l.386.953zm13.553-21.682a7.455 7.455 0 00-1.032-3.444c-.002-.004-.001-.008-.003-.01a7.434 7.434 0 00-1.119-1.455c-1.75-1.76-3.986-2.667-6.079-2.667-.073 0-.143.017-.216.019.125.515.157.858.161.901a1.003 1.003 0 01-.998 1.091c-.513 0-.95-.395-.996-.918a5.783 5.783 0 00-.146-.714 5.78 5.78 0 00-2.209 1.368l-.915.92c-2.638 2.652-2.227 7.38.915 10.538.348.351.727.663 1.128.933l.009.003c.357.24.728.439 1.109.608l.048.024c.368.161.748.286 1.131.382l.108.028c.383.089.77.151 1.159.179l.086.003a7.418 7.418 0 003.579-.673l.056-.026a7.35 7.35 0 001.046-.605c.027-.018.053-.04.08-.059.331-.238.65-.5.945-.796.275-.278.52-.577.744-.886.031-.044.064-.084.094-.128.213-.307.401-.627.563-.957.02-.04.039-.082.058-.123a7.467 7.467 0 00.638-2.173l.017-.118c.043-.365.057-.734.046-1.102-.001-.048-.005-.096-.007-.143zm27.281 12.426a1.009 1.009 0 01-.365-1.093 4.47 4.47 0 00.184-1.251c0-2.31-1.857-4.552-5.226-6.315a1.008 1.008 0 01-.539-.897c0-.077-.018-7.728-4.271-11.616-1.609-1.471-3.656-2.228-6.098-2.26.637 1.439 1.3 3.62.425 5.216-.637 1.164-1.886 1.761-3.715 1.782-2.224.023-4.405.269-6.381.715.176.421.311.858.423 1.302l.02.082c.179.735.282 1.493.282 2.269 0 .104-.012.206-.015.308-.003.091-.008.181-.013.271a9.506 9.506 0 01-.479 2.473l-.065.181a9.378 9.378 0 01-1.345 2.478 9.29 9.29 0 01-.84.982 9.06 9.06 0 01-.626.571c-.088.076-.181.144-.272.216-.123.094-.247.189-.373.278a7.802 7.802 0 01-.645.412 9.095 9.095 0 01-.482.269l-.038.018a9.2 9.2 0 01-1.977.729l-.06.015a9.143 9.143 0 01-.647.131l-.119.017a9.4 9.4 0 01-1.419.117c-.15 0-.297-.014-.445-.022-.095-.004-.19-.007-.285-.013a9.425 9.425 0 01-.807-.099c-.17-.029-.338-.058-.505-.095-.087-.019-.173-.043-.259-.065a9.188 9.188 0 01-1.656-.589c-.075-.033-.149-.062-.222-.099-.129.42-.193.835-.193 1.241 0 .413.062.833.184 1.25.118.404-.028.842-.365 1.093-1.526 1.135-3.344 2.974-3.344 5.293 0 .451.069.901.205 1.346.032-.019.066-.035.098-.054.061-.036.123-.069.185-.102a4.117 4.117 0 01.808-.329c.071-.021.142-.04.215-.058.107-.024.216-.043.326-.061.072-.01.144-.022.217-.03.119-.014.24-.018.363-.022.067-.002.133-.006.204-.007.152.002.308.013.464.028.04.003.08.003.12.008.198.023.399.058.604.103.05.011.103.028.154.039.155.039.31.079.468.128.074.024.15.052.225.079.138.047.275.096.414.152.084.034.169.072.254.11a8.864 8.864 0 01.67.321 12.583 12.583 0 01.678.382 17.556 17.556 0 01.685.443c.145.1.29.205.435.312.087.064.174.126.261.192.159.121.318.251.478.382l.226.183c.235.198.471.405.708.624a5.06 5.06 0 01.629-.357c.061-.03.122-.056.185-.083a4.8 4.8 0 01.501-.188c.062-.019.122-.04.184-.057a5.547 5.547 0 011.404-.192c.025 0 .05-.005.075-.005.041 0 .083.007.125.007a7.305 7.305 0 011.482.186h.001c.244.056.488.129.731.208.069.022.138.047.208.072.183.066.365.136.546.213.069.029.137.056.206.087.241.108.481.223.717.351l.005.002a12.453 12.453 0 011.396.889 13.329 13.329 0 01.843.662 7.502 7.502 0 019.14-.002c2.775-2.412 6.485-3.618 9.149-1.798.377-.348.75-.661 1.12-.958.068-.054.136-.111.204-.163.352-.274.701-.525 1.046-.751.071-.047.142-.091.214-.136.352-.222.7-.428 1.043-.6l.072-.033a9.56 9.56 0 01.972-.414c.059-.021.118-.045.177-.065.321-.109.636-.191.944-.25.062-.012.123-.021.184-.031.314-.05.621-.082.919-.079.023 0 .045.003.068.003.293.006.575.041.851.098.034.008.069.011.103.019.279.066.547.162.805.282.02.009.042.011.062.021.095-.371.142-.742.142-1.109 0-2.319-1.819-4.158-3.345-5.293zm-1.37 1.588c-1.697.901-3.68 1.665-5.894 2.273a1.003 1.003 0 01-1.23-.707 1.009 1.009 0 01.702-1.236c2.073-.569 3.919-1.279 5.487-2.112a1.002 1.002 0 011.353.421 1.01 1.01 0 01-.418 1.361zm-6.069-9.152c-3.473 1.053-7.598 1.611-11.928 1.611-.553 0-1.003-.45-1.003-1.006 0-.557.449-1.007 1.002-1.007 4.137 0 8.062-.528 11.349-1.525a1.006 1.006 0 01.58 1.927zm-5.785 10.559a1.001 1.001 0 011.123.868 1.004 1.004 0 01-.864 1.127 51.35 51.35 0 01-6.653.436 49.71 49.71 0 01-6.087-.372 1.006 1.006 0 01.244-1.998 48.58 48.58 0 0012.237-.061zm-20.995.068a.98.98 0 01-.342-.061 26.094 26.094 0 01-3.185-1.407 1.01 1.01 0 01-.425-1.358.999.999 0 011.352-.424c.923.484 1.913.922 2.942 1.299a1.007 1.007 0 01-.342 1.951zm-2.061-18.038a4.212 4.212 0 01-2.996-1.244 1.01 1.01 0 010-1.424.996.996 0 011.415 0c.872.875 2.29.875 3.161 0a.999.999 0 011.417 0 1.01 1.01 0 010 1.424 4.216 4.216 0 01-2.997 1.244zm3.571 30.295a.999.999 0 011.332.485l2.766 5.942a1.01 1.01 0 01-.482 1.338 1 1 0 01-1.331-.484l-2.768-5.943a1.009 1.009 0 01.483-1.338zm8.573 2.025a1.006 1.006 0 011.144.84l.922 5.942a1.007 1.007 0 01-.991 1.163c-.485 0-.911-.356-.988-.852l-.922-5.942a1.007 1.007 0 01.835-1.151zm9.534 0c.545.086.919.601.835 1.151l-.922 5.942a1.006 1.006 0 01-1.145.84 1.007 1.007 0 01-.835-1.151l.922-5.942c.085-.55.598-.921 1.145-.84zm7.241-1.54a.997.997 0 011.331-.485c.501.235.716.835.482 1.338l-2.767 5.943a1.002 1.002 0 01-1.331.484 1.008 1.008 0 01-.483-1.338l2.768-5.942z"/></svg>