<svg xmlns="http://www.w3.org/2000/svg" width="53" height="52"><path fill-rule="evenodd" fill="#FF6262" d="M51.631 32.144c-1.959 8.157-6.908 13.939-14.708 17.186C31.569 51.559 26.178 52 22.754 52c-1.372 0-2.429-.071-3.041-.126l-.291-.026c-1.834-.163-3.732-.332-5.564-.942-8.481-2.821-11.785-9.869-11.921-10.168l-.036-.09c-1.906-5.518-.75-8.602.557-10.216 1.706-2.107 4.597-2.957 8.365-2.46 2.362.306 4.632-.605 6.065-2.454 1.432-1.845 1.764-4.275.889-6.5-2.819-7.175-.55-12.878 6.386-16.06C29.711.414 34.713 0 39.03 1.728c5.885 2.357 9.303 8.265 11.136 12.808 2.335 5.787 2.842 11.877 1.465 17.608zm-3.307-16.857c-1.688-4.182-4.796-9.606-10.029-11.701-3.793-1.518-8.271-1.118-13.308 1.192-5.999 2.751-7.803 7.294-5.363 13.505 1.136 2.891.7 6.056-1.169 8.466-1.871 2.413-4.816 3.614-7.893 3.205-3.045-.4-5.315.199-6.563 1.741-1.388 1.716-1.473 4.641-.239 8.243.264.54 3.394 6.632 10.723 9.07 1.613.537 3.314.688 5.115.849l.291.026c2.03.181 9.194.546 16.274-2.4 7.181-2.989 11.735-8.307 13.536-15.809 1.279-5.324.804-10.989-1.375-16.387zM22.938 48.016c-.941 0-1.845-.038-2.688-.114l-.281-.025c-1.663-.148-3.236-.288-4.675-.766-6.335-2.109-9.13-7.071-9.625-8.045l-.058-.137c-.978-2.916-.987-5.272-.026-6.632.906-1.285 2.87-1.808 5.488-1.456 3.515.467 6.914-1.054 8.878-3.96 1.735-2.564 2.069-5.721.915-8.658-3.168-8.063 2.69-10.75 4.615-11.634 9.617-4.406 16.701-1.154 21.014 9.532a25.865 25.865 0 011.874 8.551c.007.061.014.12.008.183.078 2.149-.111 4.283-.61 6.36-1.213 5.052-6.061 16.801-24.829 16.801zm4.529-2.265c11.69-1.438 16.105-8.388 17.757-12.963-1.739-.477-6.495-1.089-14.631 2.837-3.508 1.694-6.619 1.983-9.251.863a8.364 8.364 0 01-2.065-1.265 10.651 10.651 0 003.842 4.906c1.529 1.062 4.188 2.913 4.348 5.622zM16.519 32.093a11.268 11.268 0 01-5.705.73c-1.782-.238-3.176.018-3.608.631-.433.614-.588 2.184.264 4.763.398.758 2.917 5.153 8.447 6.995 1.221.406 2.682.536 4.229.673l.282.025c.783.07 1.628.106 2.51.107.884 0 1.724-.034 2.542-.087-.063-1.456-1.445-2.736-3.489-4.155-2.857-1.984-4.786-5.115-5.293-8.592-.057-.397-.12-.765-.179-1.09zm28.135-15.22c-2.733-6.77-6.589-10.204-11.46-10.204-2.054 0-4.372.585-6.889 1.739-2.999 1.376-5.771 3.531-3.592 9.08.92 2.342 1.043 4.796.432 7.092.755.965 3.507 3.691 9.449 1.789 1.316-.681 9.197-4.609 13.647-3.346a24.23 24.23 0 00-1.587-6.15zm-11.218 11.31a.924.924 0 01-.153.065c-1.693.55-3.186.772-4.492.772-3.182 0-5.249-1.313-6.411-2.384-.23.468-.486.928-.785 1.37a11.172 11.172 0 01-3.095 3.051c.498.989 1.624 2.75 3.635 3.597 2.079.877 4.636.598 7.598-.831 8.66-4.179 13.908-3.565 16.072-2.952l.032-.125c.429-1.79.612-3.63.571-5.487-2.277-1.617-9.059.874-12.972 2.924zm.701-8.967c-2.739 0-4.967-2.242-4.967-4.999 0-2.756 2.228-4.998 4.967-4.998 2.739 0 4.968 2.242 4.968 4.998 0 2.757-2.229 4.999-4.968 4.999zm0-7.998c-1.643 0-2.98 1.346-2.98 2.999 0 1.654 1.337 2.999 2.98 2.999s2.981-1.345 2.981-2.999c0-1.653-1.338-2.999-2.981-2.999z"/></svg>