<svg xmlns="http://www.w3.org/2000/svg" width="59" height="53"><path fill-rule="evenodd" fill="#FFC243" d="M57.829 24.846c-1.527 3.114-4.507 4.142-4.632 4.184l-18.833 7.59-.01.024c-.09.276-.2.536-.332.777l-.01.02a4.09 4.09 0 01-.467.689c-.475.552-1.11.955-1.843 1.203l-.04.012a5.222 5.222 0 01-.75.183c-.18.031-.363.052-.551.065-.05.003-.099.01-.148.012-.221.01-.445.01-.674-.004a3.989 3.989 0 01-.789-.134c-.035-.01-.067-.026-.101-.038a3.544 3.544 0 01-.621-.248c-.003-.002-.007-.002-.01-.005l-16.443 6.625c1.272 1.833 1.603 3.428.974 4.736-1.033 2.148-4.162 2.416-4.516 2.438a5.829 5.829 0 01-.596.027c-.897 0-2.59-.163-3.793-1.258-.849-.771-1.286-1.877-1.262-3.196.05-2.739.707-7.241 1.095-9.681.05-.317-.292-.49-.502-.543-1.148-.286-1.992-1.351-2.508-3.163-1.463-5.139 2.39-8.275 4.216-9.432L6.189 6.597c.004-.051.019-.098.024-.15v-.003a5.636 5.636 0 014.757-5.019C13.938.961 17.849.475 22.147.249c.022-.001.04-.012.061-.012.013 0 .023.007.036.007 4.792-.248 10.057-.165 15.062.645a.982.982 0 01.395.054c.006.001.009.006.015.009 2.436.414 4.804 1.004 7.015 1.816.024.007.048.003.073.011.035.012.058.038.09.055 5.18 1.936 9.472 5.119 11.768 10.129.021.045.049.087.064.134.431.964.785 1.999 1.062 3.101.008.019.023.031.03.05 1.176 3.323 1.18 6.215.011 8.598zM26.515 37.63c-.386-.74-.544-1.558-.596-2.262l-13.292 5.493c-1.261.486-1.991 1.064-2.192 1.723-.121.397-.059.889.158 1.461l15.922-6.415zM13.183 3.116c-.666.093-1.307.186-1.9.279A3.65 3.65 0 008.535 5.45c1.6-.256 3.16-.489 4.648-.683V3.116zm8.023-.82c-2.147.138-4.175.337-6.017.561v1.669c2.115-.246 4.124-.432 6.017-.554V2.296zm7.02-.189A83.82 83.82 0 0027 2.098a86.97 86.97 0 00-3.788.09v1.678a81.3 81.3 0 015.014-.077V2.107zm2.006.061v1.687c1.876.09 3.607.258 5.214.494l.582-1.662a59.752 59.752 0 00-5.796-.519zm5.993 4.237c-.032.004-.062.015-.094.015-.11 0-.221-.018-.33-.055-.02-.008-.032-.023-.051-.03-3.65-.574-8.076-.766-13.49-.451-.018.001-.033.01-.051.01-.011 0-.02-.006-.031-.006-4.091.241-8.748.775-14.05 1.646L6.601 26.919l-.46.262c-1.516.862-4.917 3.312-3.743 7.437.289 1.015.687 1.678 1.067 1.773 1.357.339 2.196 1.511 1.993 2.788-.38 2.389-1.023 6.787-1.07 9.405-.015.752.186 1.303.609 1.689.821.747 2.381.771 2.861.716.634-.046 2.435-.378 2.883-1.316.374-.784-.261-1.96-.863-2.81-1.337-1.891-1.782-3.481-1.364-4.857.394-1.295 1.494-2.275 3.362-2.996l16.314-6.742-.241 1.726c-.136.974-.017 2.347.566 3.059.051.063.108.114.166.166l.07.056c.119.094.252.166.398.221l.042.015c.147.05.307.084.483.096.092.007.186.006.28.007.393-.001.963-.056 1.469-.319.516-.281.94-.775 1.118-1.619l.023-.113c.137-.778.078-1.768-.19-2.947-.124-.55-.12-1.12.013-1.648l.123-.486 19.009-7.854c.292-.156 2.847-1.592 1.961-3.514-1.133-2.463-2.529-4.93-4.753-7.066-.024-.014-.049-.019-.072-.035a.994.994 0 01-.277-.287c-1.422-1.294-3.171-2.454-5.381-3.402-.068-.009-.136-.011-.203-.035-.094-.034-.17-.092-.246-.148-1.795-.727-3.875-1.321-6.323-1.736zm1.812-3.39L37.45 4.69c1.876.37 3.567.838 5.08 1.401l.645-1.77a37.426 37.426 0 00-5.138-1.306zm7.014 2.011l-.671 1.84c1.792.829 3.326 1.794 4.638 2.87l1.204-1.738c-1.527-1.204-3.272-2.183-5.171-2.972zm6.679 4.312l-1.221 1.761c1 1.009 1.857 2.089 2.606 3.216l1.402-1.192a15.415 15.415 0 00-2.787-3.785zm4.324 8.182a17.233 17.233 0 00-.7-2.486l-1.188 1.009c.409.736.789 1.483 1.139 2.243.279.607.385 1.185.372 1.73a3.706 3.706 0 00.377-2.496zm-1.428 5.986l-20.332 8.4c.005.09.018.182.039.274.179.786.271 1.508.297 2.18l17.871-7.201c.074-.028 2.393-.852 3.539-3.216a6.445 6.445 0 00.552-1.829 5.599 5.599 0 01-1.966 1.392zm-8.013-6.558c0 3.355-3.449 6.083-7.689 6.083-3.588 0-6.686 0-6.686-4.089 0-3.778 8.116-5.796 9.694-5.795h.011c.802 0 1.885.002 2.82.449.844.403 1.85 1.312 1.85 3.352zm-2.719-1.557c-.525-.25-1.31-.251-1.944-.251h-.012c-1.545 0-7.695 2.027-7.695 3.802 0 1.652 0 2.095 4.681 2.095 3.081 0 5.683-1.872 5.683-4.089 0-1.214-.499-1.454-.713-1.557zm-1.91 2.183a1 1 0 01-1.002-.996 1 1 0 011.002-.997 1 1 0 011.003.997 1 1 0 01-1.003.996zm-.312 1.511a1 1 0 01-1.003.997 1 1 0 01-1.003-.997 1 1 0 011.003-.996 1 1 0 011.003.996zm-4.92 1.128a1 1 0 01-1.003-.996 1 1 0 011.003-.997 1 1 0 011.002.997 1 1 0 01-1.002.996zm-2.444-6.129c-.189.039-.38.058-.568.058-.503 0-.996-.137-1.427-.403a2.524 2.524 0 01-1.166-1.647.56.56 0 00-.26-.357.709.709 0 00-.532-.087c-1.456.292-2.872-.599-3.162-1.994a.557.557 0 00-.26-.357.702.702 0 00-.531-.087 1.004 1.004 0 01-1.187-.775.994.994 0 01.778-1.178 2.735 2.735 0 011.996.345 2.535 2.535 0 011.167 1.648c.066.321.421.523.792.444a2.732 2.732 0 011.995.346c.61.375 1.024.961 1.167 1.648.04.196.18.308.259.356a.72.72 0 00.531.087 1.007 1.007 0 011.186.774.997.997 0 01-.778 1.179zm-7.656 4.192a.577.577 0 00.443-.003.727.727 0 00.379-.381 1.003 1.003 0 011.322-.511c.507.22.737.809.514 1.312a2.715 2.715 0 01-1.44 1.417 2.559 2.559 0 01-2.027-.011.569.569 0 00-.443.003.727.727 0 00-.379.381c-.599 1.349-2.154 1.981-3.468 1.404a.569.569 0 00-.443.003.72.72 0 00-.379.381 1.005 1.005 0 01-1.322.511.992.992 0 01-.514-1.312 2.708 2.708 0 011.44-1.417 2.556 2.556 0 012.026.011c.301.131.671-.04.824-.384a2.706 2.706 0 011.439-1.415 2.557 2.557 0 012.028.011zm-10.097-.187c-3.587 0-6.686 0-6.686-4.091 0-3.777 8.117-5.794 9.694-5.794h.012c.802 0 1.885.003 2.82.449.844.403 1.849 1.312 1.849 3.352 0 3.354-3.449 6.084-7.689 6.084zm4.97-7.639c-.523-.25-1.308-.253-1.941-.253h-.013c-1.547 0-7.697 2.028-7.697 3.802 0 1.654 0 2.097 4.681 2.097 3.081 0 5.683-1.873 5.683-4.09 0-1.215-.499-1.454-.713-1.556zm-1.236 3.692a.999.999 0 01-1.003-.996.999.999 0 011.003-.996.999.999 0 011.002.996.999.999 0 01-1.002.996zm-3.233-.996a1 1 0 01-1.003-.996 1 1 0 011.003-.998 1 1 0 011.003.998 1 1 0 01-1.003.996zm-2.616 2.317a1 1 0 01-1.003-.998 1 1 0 011.003-.996 1 1 0 011.003.996 1 1 0 01-1.003.998zm5.629 9.362c.844.404 1.849 1.313 1.849 3.352 0 3.355-3.449 6.084-7.689 6.084-3.587 0-6.686 0-6.686-4.091 0-3.777 8.117-5.793 9.695-5.793.837 0 1.892 0 2.831.448zm-10.52 5.346c0 1.654 0 2.097 4.68 2.097 3.081 0 5.683-1.872 5.683-4.09 0-1.215-.499-1.453-.713-1.556-.523-.25-1.307-.252-1.941-.252h-.012c-1.548 0-7.697 2.027-7.697 3.801zm8.51-.017a1 1 0 01-1.003.996 1 1 0 01-1.003-.996 1 1 0 011.003-.997 1 1 0 011.003.997zm-2.616-.997a1 1 0 01-1.003-.997 1 1 0 011.003-.997 1 1 0 011.003.997 1 1 0 01-1.003.997zm-3.26 2.316a1 1 0 01-1.003-.997 1 1 0 011.003-.996 1 1 0 011.003.996 1 1 0 01-1.003.997zm14.907-4.525c.048-.001.115-.076.112-.192-.026-1.204.904-2.202 2.073-2.228.048-.001.116-.076.112-.192-.01-.55.429-1.006.982-1.018.581.03 1.012.426 1.024.976.026 1.203-.904 2.202-2.074 2.229-.047 0-.114.075-.111.191.026 1.203-.905 2.202-2.074 2.228-.074.001-.113.117-.112.19a.999.999 0 01-.98 1.019h-.023a1 1 0 01-1.002-.974 2.21 2.21 0 01.565-1.535 2.082 2.082 0 011.508-.694z"/></svg>