<svg xmlns="http://www.w3.org/2000/svg" width="57" height="49"><path fill-rule="evenodd" fill="#8EAA41" d="M54.769 25.745a3.401 3.401 0 01-.618.099l-.002 4.443a3.756 3.756 0 012.85 3.635 3.756 3.756 0 01-2.85 3.635v5.788c-.004 3.121-2.554 5.651-5.701 5.654H8.552c-3.147-.003-5.697-2.532-5.701-5.654v-5.788a3.757 3.757 0 01-2.85-3.635 3.757 3.757 0 012.85-3.635v-4.442a3.425 3.425 0 01-.62-.1A2.978 2.978 0 01.218 23.87a3.72 3.72 0 01-.212-1.457c.153-2.044 1.891-3.611 3.956-3.568h.069C6.89 7.757 16.961-.001 28.5-.001c11.539 0 21.61 7.758 24.468 18.846h.069c2.066-.043 3.804 1.524 3.957 3.568.027.496-.045.991-.212 1.459a2.982 2.982 0 01-2.013 1.873zm-1.57 10.062c1.049 0 1.9-.844 1.9-1.885a1.892 1.892 0 00-1.9-1.884h-7.6v3.769h7.6zM38.95 30.153c.251 0 .493.099.671.276a.929.929 0 01.278.666v6.596c0 1.041.851 1.884 1.9 1.884 1.05 0 1.9-.843 1.9-1.884v-6.596c0-.25.1-.49.278-.666a.953.953 0 01.672-.276h7.6l.003-4.655a3.475 3.475 0 01-.59-.373 2.89 2.89 0 00-.477-.295c-.057-.029-.116-.054-.175-.08a3.11 3.11 0 00-.34-.119c-.074-.021-.146-.046-.222-.061a2.925 2.925 0 00-.484-.061h-.001a2.752 2.752 0 00-2.422 1.392 4.703 4.703 0 01-4.109 2.361c-.016 0-.032.003-.048.004a4.876 4.876 0 01-4.29-2.325 3.118 3.118 0 00-.513-.621c-.007-.007-.016-.011-.023-.017a3.027 3.027 0 00-1.313-.705c-.072-.018-.149-.018-.222-.03a3.163 3.163 0 00-.485-.058 2.755 2.755 0 00-2.297 1.391c-1.051 1.869-4.002 2.367-5.579 2.367l-.1-.002-.062.002a10.062 10.062 0 01-2.061-.233c-.014-.004-.028-.005-.043-.009-.183-.04-.366-.094-.55-.147-.065-.019-.131-.032-.196-.052v2.326h13.3zm-13.3 1.885v3.769H38v-3.769H25.65zM4.751 43.345c.002 2.081 1.703 3.768 3.801 3.77h39.896c2.098-.002 3.799-1.689 3.801-3.77v-5.654h-6.65c0 2.082-1.701 3.769-3.8 3.769-2.098 0-3.8-1.687-3.8-3.769H25.65v2.828c0 2.082-1.701 3.769-3.8 3.769-2.098 0-3.8-1.687-3.8-3.769v-2.827l-13.299-.001v5.654zm18.999-2.827V26.856c-.063-.051-.111-.109-.169-.163-.081-.074-.164-.145-.237-.226a3.07 3.07 0 01-.423-.566 2.772 2.772 0 00-2.383-1.4 3.06 3.06 0 00-2.632 1.44 5.081 5.081 0 01-.415.564l-.011.016a1.793 1.793 0 01-.117.126 9.23 9.23 0 01-.222.232c-.036.034-.07.069-.106.102l-.042.04c-.048.044-.098.083-.149.123-.033.027-.056.041-.087.065a4.4 4.4 0 01-.259.196c-.015.011-.033.027-.048.037l-.143.087-.083.049a4.713 4.713 0 01-.311.172l-.046.024c-.05.025-.107.05-.164.074l-.016.006a5.017 5.017 0 01-.442.168l-.008.003-.107.033-.011.003a4.597 4.597 0 01-.869.181v2.853c0 1.041.851 1.885 1.901 1.885a1.892 1.892 0 001.899-1.885c0-.52.426-.942.95-.942.525 0 .95.422.95.942v9.423c0 1.042.851 1.886 1.9 1.886 1.05 0 1.9-.844 1.9-1.886zM1.901 33.922a1.896 1.896 0 001.9 1.885h14.25v-1.449a3.757 3.757 0 01-2.613.435c-.075-.014-.146-.038-.219-.057a3.715 3.715 0 01-.45-.139c-.081-.031-.158-.068-.236-.105a3.479 3.479 0 01-.38-.205 3.518 3.518 0 01-.217-.142 3.803 3.803 0 01-.341-.279c-.059-.054-.12-.104-.176-.162a3.817 3.817 0 01-.336-.403c-.029-.041-.064-.077-.093-.118a3.866 3.866 0 01-.324-.592c-.026-.059-.041-.122-.064-.182a3.895 3.895 0 01-.131-.371l-8.67.001-.003-.001a1.895 1.895 0 00-1.897 1.884zm10.45-3.769v-2.087a4.607 4.607 0 01-2.73-2.165 2.718 2.718 0 00-1.874-1.343 3.021 3.021 0 00-.546-.049 2.957 2.957 0 00-1.701.616c-.23.178-.481.326-.749.441v4.587h7.6zM28.5 1.885c-10.485.022-19.68 6.948-22.518 16.96h45.036C48.18 8.833 38.985 1.907 28.5 1.885zM53.038 20.73H3.962a2.006 2.006 0 00-2.058 1.782c-.015.248.021.495.105.729.118.342.4.602.752.694a1.616 1.616 0 001.403-.291 4.873 4.873 0 013.017-1.023c.37-.012.74.018 1.103.09a4.653 4.653 0 013.159 2.271 2.75 2.75 0 002.004 1.363c.008.002.015.007.023.008.028.003.054.011.082.012.079.008.159.012.238.011l.019-.001a3.048 3.048 0 00.752-.115l.025-.007a3.244 3.244 0 00.684-.303h.001c.172-.103.333-.224.481-.36.037-.035.073-.072.109-.111.162-.162.307-.34.431-.533l.003-.003c.038-.061.083-.114.124-.172.082-.12.162-.241.253-.352.069-.084.146-.157.219-.236.071-.076.139-.157.214-.229.074-.069.154-.129.232-.194.083-.07.164-.144.251-.208.072-.052.149-.095.223-.143.101-.066.201-.134.306-.193.065-.035.135-.063.202-.096.12-.059.24-.119.366-.168.059-.023.121-.039.181-.06.138-.048.275-.095.417-.129.06-.015.122-.023.183-.036a5.27 5.27 0 01.435-.076c.074-.008.151-.008.226-.014.111-.007.221-.021.335-.021l.123.001a4.663 4.663 0 013.995 2.365c.157.246.373.45.628.594a6.188 6.188 0 002.43.752l.095.011c.255.028.511.043.767.045 1.54 0 3.427-.524 3.92-1.402a4.663 4.663 0 013.995-2.365c.041-.001.082.006.123.006l.009-.001.045.003a4.889 4.889 0 013.321 1.35c.012.011.023.025.034.036a4.899 4.899 0 01.758.931 3.012 3.012 0 002.169 1.387c.159.029.32.045.481.049h.006a2.771 2.771 0 002.359-1.396 4.655 4.655 0 013.159-2.272 4.918 4.918 0 012.641.207l.003.001a5.057 5.057 0 01.75.354c.187.106.366.224.537.354.008.006.017.01.025.017.013.009.027.015.04.024.085.064.176.119.272.165.026.012.054.019.081.03a1.56 1.56 0 001.011.073c.352-.092.634-.351.752-.692.084-.234.119-.483.105-.731a2.006 2.006 0 00-2.058-1.782zM15.872 10.641l1.9 1.886a.936.936 0 01-.004 1.327.956.956 0 01-1.339.005l-1.9-1.885a.936.936 0 01.005-1.328.955.955 0 011.338-.005zm7.207-5.653a.955.955 0 011.338.004c.369.367.371.96.005 1.328l-1.9 1.885a.956.956 0 01-.92.249.944.944 0 01-.674-.669.934.934 0 01.251-.912l1.9-1.885zm4.749 7.539a.956.956 0 011.339.004.938.938 0 01.005 1.328l-1.9 1.884a.955.955 0 01-1.595-.42.94.94 0 01.251-.912l1.9-1.884zm5.144-5.654l1.899 1.884a.937.937 0 01-.004 1.328.957.957 0 01-1.339.005l-1.9-1.885a.938.938 0 01.005-1.328.956.956 0 011.339-.004zm7.599 4.711l1.9 1.885a.935.935 0 01-.005 1.327.953.953 0 01-1.338.005l-1.9-1.884a.937.937 0 01.004-1.328.956.956 0 011.339-.005zM11.122 44.012a.953.953 0 01-1.594-.42.936.936 0 01.251-.912l1.9-1.885a.956.956 0 011.339.005.936.936 0 01.004 1.327l-1.9 1.885zm20.899-3.217l1.9 1.885a.936.936 0 01-.004 1.327.955.955 0 01-1.339.005l-1.9-1.885a.936.936 0 01.005-1.327.954.954 0 011.338-.005zm15.756.943a.955.955 0 011.342.001.937.937 0 01.002 1.331l-1.9 1.884a.953.953 0 01-1.622-.666c0-.25.1-.489.279-.666l1.899-1.884z"/></svg>