<svg xmlns="http://www.w3.org/2000/svg" width="24" height="16"><path fill-rule="evenodd" fill="#535353" d="M18.521 2.66a.179.179 0 01-.044-.036c-.866-.753-1.883-1.112-3.053-1.068l-.036-.078c.007-.007.014-.007.021-.007 1.061-.227 1.689-.459 1.877-.711.065-.204-.014-.317-.246-.345a6.534 6.534 0 00-1.465.33c.556-.33.773-.562.65-.682-.549.014-1.14.274-1.762.789.232-.367.318-.564.261-.599-.296.19-.557.394-.78.612-.469.486-.845.937-1.133 1.345l-.015.035c-.743 1.118-1.263 2.245-1.573 3.393l-.116.085-.021.02a5.792 5.792 0 00-1.624-1.31 19.632 19.632 0 00-2.671-1.315 23.453 23.453 0 00-3.4-1.323c-.007 1.189.621 2.139 1.87 2.829v.021a4.267 4.267 0 00-1.278.176c.079 1.105.924 1.864 2.526 2.287l-.007.021c-.628-.034-1.148.171-1.552.592.527.957 1.458 1.414 2.808 1.379-.267.127-.476.267-.613.423a.83.83 0 00-.246.844c.289.487.809.71 1.574.676l.043.049-.022.022c-1.321 1.265-2.916 1.836-4.786 1.717l-.028.014c-1.141-.008-2.36-.514-3.681-1.528 1.328 1.773 3.089 3.055 5.269 3.858 2.497.767 4.995.823 7.485.168h.043c2.419-.648 4.468-1.978 6.157-3.991.78-1.056 1.271-2.061 1.466-3.026 1.263.042 2.172-.296 2.735-1.013l-.014-.021c-.419.14-1.242.098-2.462-.134v-.127c0-.006 0-.006.008 0 1.335-.141 2.122-.541 2.375-1.204a3.996 3.996 0 01-2.758.029c-.166-1.169-.757-2.232-1.782-3.196z"/></svg>